<svg xmlns="http://www.w3.org/2000/svg" xmlns:xlink="http://www.w3.org/1999/xlink" id="Ebene_1" x="0px" y="0px" viewBox="0 0 2267 543" style="enable-background:new 0 0 2267 543;" xml:space="preserve"><style type="text/css">	.st0{fill:#FFFFFF;}	.st1{fill:url(#SVGID_1_);}	.st2{fill:url(#SVGID_2_);}	.st3{fill:url(#SVGID_3_);}	.st4{fill:url(#SVGID_4_);}	.st5{fill:url(#SVGID_5_);}	.st6{fill:url(#SVGID_6_);}	.st7{fill:url(#SVGID_7_);}	.st8{fill:url(#SVGID_8_);}	.st9{fill:#FF9B00;}</style><g>	<path class="st0" d="M730.3,173.1l-82.4,195.6h56.3l13.9-35h75.2l13.9,35h57.7l-82.7-195.6H730.3z M733.9,291.8l21.9-54.9  l21.6,54.9H733.9z"></path>	<polygon class="st0" points="1013.9,277.1 934,174.5 883.8,174.5 883.8,368.7 937,368.7 937,262.2 1020.3,368.7 1067.2,368.7   1067.2,174.5 1013.9,174.5  "></polygon>	<polygon class="st0" points="1099.1,219.7 1193.1,219.7 1095.7,329.6 1095.7,368.7 1267.2,368.7 1267.2,323.2 1169.8,323.2   1267.2,213.3 1267.2,174.5 1099.1,174.5  "></polygon>	<path class="st0" d="M1460.1,200c-9.3-9.1-20.3-16.2-33-21.5c-12.8-5.3-26.6-7.9-41.6-7.9c-15,0-28.9,2.6-41.6,7.9  c-12.8,5.3-23.9,12.5-33.3,21.6c-9.4,9.2-16.8,19.9-22.1,32.2c-5.3,12.3-7.9,25.4-7.9,39.3v0.6c0,13.9,2.6,26.9,7.9,39.1  c5.3,12.2,12.5,22.8,21.8,31.9c9.2,9.1,20.3,16.2,33,21.5c12.8,5.3,26.6,7.9,41.6,7.9c15,0,28.9-2.6,41.6-7.9  c12.8-5.3,23.9-12.5,33.3-21.6c9.4-9.2,16.8-19.9,22.1-32.2c5.3-12.3,7.9-25.4,7.9-39.3V271c0-13.9-2.6-26.9-7.9-39.1  C1476.6,219.7,1469.3,209.1,1460.1,200z M1434.5,272.1c0,7-1.2,13.7-3.6,20c-2.4,6.3-5.7,11.8-10,16.5c-4.3,4.7-9.4,8.5-15.4,11.2  c-6,2.8-12.7,4.2-20.1,4.2c-7.4,0-14.2-1.4-20.3-4.3c-6.1-2.9-11.4-6.7-15.8-11.5c-4.4-4.8-7.9-10.4-10.3-16.6  c-2.4-6.3-3.6-12.9-3.6-20V271c0-7,1.2-13.7,3.6-20c2.4-6.3,5.7-11.8,10-16.5c4.3-4.7,9.4-8.5,15.5-11.2c6.1-2.8,12.9-4.2,20.3-4.2  c7.4,0,14.2,1.4,20.3,4.2c6.1,2.8,11.3,6.6,15.7,11.4c4.3,4.8,7.7,10.4,10.1,16.8c2.4,6.4,3.6,13.1,3.6,20.1V272.1z"></path>	<polygon class="st0" points="1647.6,277.1 1567.7,174.5 1517.5,174.5 1517.5,368.7 1570.8,368.7 1570.8,262.2 1654,368.7   1700.9,368.7 1700.9,174.5 1647.6,174.5  "></polygon>	<rect x="1735.3" y="174.5" class="st0" width="156.2" height="47.8"></rect>	<polygon class="st0" points="1788.6,322.9 1788.6,292.1 1881.8,292.1 1881.8,250.3 1735.3,250.3 1735.3,368.7 1892.9,368.7   1892.9,322.9  "></polygon>	<g>		<polygon class="st0" points="500.4,174.5 500.4,222.3 657.2,222.3 677.5,174.5   "></polygon>		<polygon class="st0" points="499.7,264.6 499.7,279.8 499.7,368.7 553.6,368.7 553.6,299.3 624.6,299.3 645.6,250.2 499.7,250.2      "></polygon>	</g></g><g>	<g>		<linearGradient id="SVGID_1_" gradientUnits="userSpaceOnUse" x1="70.3959" y1="271.3571" x2="419.1098" y2="271.3571">			<stop offset="0" style="stop-color:#FF5A00"></stop>			<stop offset="1" style="stop-color:#FF9B00"></stop>		</linearGradient>		<polygon class="st1" points="419.1,371.9 419.1,171 244.8,70.5 70.4,171 70.4,371.9 244.7,472.2   "></polygon>	</g>	<g>		<g>			<linearGradient id="SVGID_2_" gradientUnits="userSpaceOnUse" x1="244.7143" y1="321.5968" x2="419.1779" y2="321.5968">				<stop offset="0" style="stop-color:#FF9B00"></stop>				<stop offset="1" style="stop-color:#FF5A00"></stop>			</linearGradient>			<polygon class="st2" points="244.7,472.2 419.2,371.7 419.1,171    "></polygon>			<linearGradient id="SVGID_3_" gradientUnits="userSpaceOnUse" x1="70.3959" y1="321.5968" x2="419.0517" y2="321.5968">				<stop offset="0" style="stop-color:#FF9B00"></stop>				<stop offset="1" style="stop-color:#FF5A00"></stop>			</linearGradient>			<polygon class="st3" points="419.1,171 70.4,171 244.7,472.2    "></polygon>			<linearGradient id="SVGID_4_" gradientUnits="userSpaceOnUse" x1="184.458" y1="120.7332" x2="419.0517" y2="120.7332">				<stop offset="0.2" style="stop-color:#FF9B00"></stop>				<stop offset="1" style="stop-color:#FF5A00"></stop>			</linearGradient>			<polygon class="st4" points="184.5,171 419.1,171 244.7,70.5    "></polygon>			<linearGradient id="SVGID_5_" gradientUnits="userSpaceOnUse" x1="70.2143" y1="371.2732" x2="244.7143" y2="371.2732">				<stop offset="0" style="stop-color:#FF9B00"></stop>				<stop offset="1" style="stop-color:#FF5A00"></stop>			</linearGradient>			<polygon class="st5" points="70.2,371.8 127.9,270.3 244.7,472.2    "></polygon>							<linearGradient id="SVGID_6_" gradientUnits="userSpaceOnUse" x1="10285.0859" y1="221.0796" x2="10459.2588" y2="221.0796" gradientTransform="matrix(-1.0016 0 0 1 10546.2793 0)">				<stop offset="0" style="stop-color:#FF9B00"></stop>				<stop offset="1" style="stop-color:#FF5A00"></stop>			</linearGradient>			<polygon class="st6" points="244.7,70.5 70.3,371.7 70.4,171    "></polygon>							<linearGradient id="SVGID_7_" gradientUnits="userSpaceOnUse" x1="1117.7754" y1="246.4721" x2="1204.983" y2="246.4721" gradientTransform="matrix(1.0016 0 0 1 -787.6978 0)">				<stop offset="0" style="stop-color:#FF9B00"></stop>				<stop offset="1" style="stop-color:#FF5A00"></stop>			</linearGradient>			<polygon class="st7" points="331.9,121.3 419.2,371.6 419.1,171    "></polygon>							<linearGradient id="SVGID_8_" gradientUnits="userSpaceOnUse" x1="14309.291" y1="120.7354" x2="14582.2305" y2="120.7354" gradientTransform="matrix(-0.5401 0 0 1 8060.0195 -2.173857e-03)">				<stop offset="0" style="stop-color:#FF9B00"></stop>				<stop offset="0.2862" style="stop-color:#FF9800"></stop>				<stop offset="0.5161" style="stop-color:#FF8E00"></stop>				<stop offset="0.7264" style="stop-color:#FF7D00"></stop>				<stop offset="0.9239" style="stop-color:#FF6500"></stop>				<stop offset="1" style="stop-color:#FF5A00"></stop>			</linearGradient>			<polygon class="st8" points="244.7,70.5 331.9,121.3 184.5,171    "></polygon>		</g>		<g>			<g>				<polygon class="st0" points="227.5,332.4 347.4,332.4 347.4,296.8 291.3,296.8 285.2,296.8 347.4,224.5 347.4,196.4 148,196.4      148,231.9 187.1,231.9 283.8,231.9 287.8,231.9 225.6,304.2 225.6,332.4     "></polygon>				<polygon class="st0" points="246.4,251.5 148,251.5 148,332.4 187.1,332.4 187.1,290.3 213,290.3 246.4,251.5     "></polygon>			</g>		</g>	</g></g><path class="st9" d="M1914.6,340c0-16.4,12.7-27.2,29.3-27.2c16.7,0,29.3,10.9,29.3,27.2c0,16.2-12.7,27.7-29.3,27.7 C1927.3,367.7,1914.6,356.2,1914.6,340z"></path><path class="st0" d="M1983.7,215.3c0-13.8,11.8-24.5,30.2-24.5s30.2,9.8,30.2,23.6c0,14.7-11.8,25.3-30.2,25.3 S1983.7,229.1,1983.7,215.3z M1988.8,249.1h50.2v116.4h-50.2V249.1z"></path><path class="st0" d="M2054.8,307.2c0-35.3,29.6-60.2,70.7-60.2c41.3,0,70.7,24.9,70.7,60.2s-29.3,60.4-70.7,60.4 C2084.4,367.7,2054.8,342.6,2054.8,307.2z M2145.3,307.2c0-15.1-8.7-22.8-19.8-22.8c-11.1,0-19.8,7.7-19.8,22.8 c0,15.1,8.7,23,19.8,23C2136.6,330.2,2145.3,322.4,2145.3,307.2z"></path></svg>